<svg width="32" height="17" viewBox="0 0 32 17" fill="none" xmlns="http://www.w3.org/2000/svg">
<path d="M8.72727 11.3333C7.12727 11.3333 5.81818 10.0583 5.81818 8.5C5.81818 6.94167 7.12727 5.66667 8.72727 5.66667C10.3273 5.66667 11.6364 6.94167 11.6364 8.5C11.6364 10.0583 10.3273 11.3333 8.72727 11.3333ZM16.8727 5.66667C15.7091 2.40833 12.5091 0 8.72727 0C3.92727 0 0 3.825 0 8.5C0 13.175 3.92727 17 8.72727 17C12.5091 17 15.7091 14.5917 16.8727 11.3333H21.8182V17H27.6364V11.3333H32V5.66667H16.8727Z" fill="white"/>
</svg>
