<svg width="32" height="31" viewBox="0 0 32 31" fill="none" xmlns="http://www.w3.org/2000/svg">
<path fill-rule="evenodd" clip-rule="evenodd" d="M9.072 4C9.77413 2.78388 10.784 1.77399 12.0001 1.07185C13.2162 0.369703 14.5957 3.56738e-05 16 0C17.4043 3.56738e-05 18.7838 0.369703 19.9999 1.07185C21.216 1.77399 22.2259 2.78388 22.928 4L24.32 6.4H7.68L9.072 4ZM2.4848 4.9696C2.8642 4.78013 3.3033 4.74902 3.70562 4.88313C4.10794 5.01724 4.44056 5.30558 4.6304 5.6848C4.8656 6.1536 5.4304 6.7632 6.1872 7.2688C6.9648 7.7872 7.6496 8 8 8H24C24.3504 8 25.0352 7.7872 25.8128 7.2688C26.5712 6.7632 27.1344 6.1536 27.3696 5.6848C27.4595 5.49028 27.5875 5.31578 27.7461 5.17167C27.9046 5.02756 28.0905 4.91678 28.2928 4.84588C28.495 4.77499 28.7094 4.74543 28.9232 4.75897C29.137 4.77251 29.346 4.82886 29.5377 4.92469C29.7293 5.02052 29.8998 5.15387 30.0389 5.31682C30.178 5.47978 30.283 5.66902 30.3476 5.87333C30.4123 6.07763 30.4352 6.29283 30.415 6.50616C30.3949 6.71949 30.3321 6.9266 30.2304 7.1152C29.6656 8.2464 28.6304 9.2368 27.5872 9.9312C27.1008 10.2571 26.583 10.5337 26.0416 10.7568C26.5156 11.9271 26.8466 13.1503 27.0272 14.4H30.4C30.8243 14.4 31.2313 14.5686 31.5314 14.8686C31.8314 15.1687 32 15.5757 32 16C32 16.4243 31.8314 16.8313 31.5314 17.1314C31.2313 17.4314 30.8243 17.6 30.4 17.6H27.1808C27.0937 19.4291 26.6932 21.2296 25.9968 22.9232C26.912 23.4512 27.5376 24.2992 27.9312 25.0832C28.4892 26.2436 28.7858 27.5124 28.8 28.8C28.8 29.2243 28.6314 29.6313 28.3314 29.9314C28.0313 30.2314 27.6243 30.4 27.2 30.4C26.7757 30.4 26.3687 30.2314 26.0686 29.9314C25.7686 29.6313 25.6 29.2243 25.6 28.8C25.6 28.2016 25.4384 27.2544 25.0688 26.5152C24.8608 26.0992 24.6528 25.8608 24.4528 25.7312C22.7632 28.1088 20.3904 29.7952 17.6 30.2672V16C17.6 15.5757 17.4314 15.1687 17.1314 14.8686C16.8313 14.5686 16.4243 14.4 16 14.4C15.5757 14.4 15.1687 14.5686 14.8686 14.8686C14.5686 15.1687 14.4 15.5757 14.4 16V30.2672C11.6096 29.7952 9.2368 28.1072 7.5472 25.7328C7.3456 25.8608 7.1392 26.1008 6.9312 26.5168C6.59504 27.2319 6.41401 28.01 6.4 28.8C6.4 29.2243 6.23143 29.6313 5.93137 29.9314C5.63131 30.2314 5.22435 30.4 4.8 30.4C4.37565 30.4 3.96869 30.2314 3.66863 29.9314C3.36857 29.6313 3.2 29.2243 3.2 28.8C3.21442 27.513 3.51099 26.2448 4.0688 25.0848C4.4624 24.2976 5.088 23.4528 6.0032 22.9248C5.30665 21.2307 4.90616 19.4296 4.8192 17.6H1.6C1.17565 17.6 0.768687 17.4314 0.468629 17.1314C0.168571 16.8313 0 16.4243 0 16C0 15.5757 0.168571 15.1687 0.468629 14.8686C0.768687 14.5686 1.17565 14.4 1.6 14.4H4.9728C5.15345 13.1503 5.48438 11.9271 5.9584 10.7568C5.41702 10.5337 4.89925 10.2571 4.4128 9.9312C3.3712 9.2368 2.3328 8.2464 1.7696 7.1152C1.58013 6.7358 1.54903 6.2967 1.68313 5.89438C1.81724 5.49206 2.10558 5.15944 2.4848 4.9696Z" fill="white"/>
</svg>
