<svg width="43" height="8" viewBox="0 0 43 8" fill="none" xmlns="http://www.w3.org/2000/svg">
<path d="M1.5 4C1.5 4.66304 1.76339 5.29893 2.23223 5.76777C2.70107 6.23661 3.33696 6.5 4 6.5C4.66304 6.5 5.29893 6.23661 5.76777 5.76777C6.23661 5.29893 6.5 4.66304 6.5 4C6.5 3.33696 6.23661 2.70107 5.76777 2.23223C5.29893 1.76339 4.66304 1.5 4 1.5C3.33696 1.5 2.70107 1.76339 2.23223 2.23223C1.76339 2.70107 1.5 3.33696 1.5 4ZM19 4C19 4.66304 19.2634 5.29893 19.7322 5.76777C20.2011 6.23661 20.837 6.5 21.5 6.5C22.163 6.5 22.7989 6.23661 23.2678 5.76777C23.7366 5.29893 24 4.66304 24 4C24 3.33696 23.7366 2.70107 23.2678 2.23223C22.7989 1.76339 22.163 1.5 21.5 1.5C20.837 1.5 20.2011 1.76339 19.7322 2.23223C19.2634 2.70107 19 3.33696 19 4ZM36.5 4C36.5 4.66304 36.7634 5.29893 37.2322 5.76777C37.7011 6.23661 38.337 6.5 39 6.5C39.663 6.5 40.2989 6.23661 40.7678 5.76777C41.2366 5.29893 41.5 4.66304 41.5 4C41.5 3.33696 41.2366 2.70107 40.7678 2.23223C40.2989 1.76339 39.663 1.5 39 1.5C38.337 1.5 37.7011 1.76339 37.2322 2.23223C36.7634 2.70107 36.5 3.33696 36.5 4Z" stroke="black" stroke-width="3" stroke-linecap="round" stroke-linejoin="round"/>
</svg>
