<svg width="24" height="24" viewBox="0 0 24 24" fill="none" xmlns="http://www.w3.org/2000/svg">
<path d="M14 4.5V7.5H6V16.5H14V19.5H3.75C3.33579 19.5 3 19.1642 3 18.75V5.25C3 4.83579 3.33579 4.5 3.75 4.5H14Z" fill="#0F172A"/>
<path d="M15.7803 8.46967C16.0732 8.17678 16.0732 7.7019 15.7803 7.40901C15.4874 7.11612 15.0126 7.11612 14.7197 7.40901L11.4697 10.659C11.1768 10.9519 11.1768 11.4268 11.4697 11.7197L14.7197 14.9697C15.0126 15.2626 15.4874 15.2626 15.7803 14.9697C16.0732 14.6768 16.0732 14.2019 15.7803 13.909L13.1213 11.25L15.7803 8.59099Z" fill="#0F172A"/>
<path d="M21 11.25L12.75 11.25L12.75 12.75L21 12.75C21.4142 12.75 21.75 12.4142 21.75 12C21.75 11.5858 21.4142 11.25 21 11.25Z" fill="#0F172A"/>
</svg>
