<svg width="32" height="32" viewBox="0 0 32 32" fill="none" xmlns="http://www.w3.org/2000/svg">
<path d="M14.6667 0V8H0V6.66667C0 4.89856 0.702379 3.20286 1.95262 1.95262C3.20286 0.702379 4.89856 0 6.66667 0H14.6667ZM17.3333 0V21.3333H32V6.66667C32 4.89856 31.2976 3.20286 30.0474 1.95262C28.7971 0.702379 27.1014 0 25.3333 0H17.3333ZM32 24H17.3333V32H25.3333C27.1014 32 28.7971 31.2976 30.0474 30.0474C31.2976 28.7971 32 27.1014 32 25.3333V24ZM14.6667 32V10.6667H0V25.3333C0 27.1014 0.702379 28.7971 1.95262 30.0474C3.20286 31.2976 4.89856 32 6.66667 32H14.6667Z" fill="white"/>
</svg>
